<?xml version="1.0" encoding="utf-8" standalone="no"?>
<!DOCTYPE svg PUBLIC "-//W3C//DTD SVG 1.1//EN"
  "http://www.w3.org/Graphics/SVG/1.1/DTD/svg11.dtd">
<svg xmlns:xlink="http://www.w3.org/1999/xlink" width="460.8pt" height="345.6pt" viewBox="0 0 460.8 345.6" xmlns="http://www.w3.org/2000/svg" version="1.1">
 <metadata>
  <rdf:RDF xmlns:dc="http://purl.org/dc/elements/1.1/" xmlns:cc="http://creativecommons.org/ns#" xmlns:rdf="http://www.w3.org/1999/02/22-rdf-syntax-ns#">
   <cc:Work>
    <dc:type rdf:resource="http://purl.org/dc/dcmitype/StillImage"/>
    <dc:date>2022-06-21T07:38:11.404944</dc:date>
    <dc:format>image/svg+xml</dc:format>
    <dc:creator>
     <cc:Agent>
      <dc:title>Matplotlib v3.5.1, https://matplotlib.org/</dc:title>
     </cc:Agent>
    </dc:creator>
   </cc:Work>
  </rdf:RDF>
 </metadata>
 <defs>
  <style type="text/css">*{stroke-linejoin: round; stroke-linecap: butt}</style>
 </defs>
 <g id="figure_1">
  <g id="patch_1">
   <path d="M 0 345.6 
L 460.8 345.6 
L 460.8 0 
L 0 0 
z
" style="fill: #ffffff"/>
  </g>
  <g id="axes_1">
   <g id="patch_2">
    <path d="M 61.41 289.68 
L 448.075321 289.68 
L 448.075321 10.8 
L 61.41 10.8 
z
" style="fill: #ffffff"/>
   </g>
   <g id="matplotlib.axis_1">
    <g id="xtick_1">
     <g id="line2d_1">
      <path d="M 79.146941 289.68 
L 79.146941 10.8 
" clip-path="url(#pe55ad46d20)" style="fill: none; stroke-dasharray: 1,1.65; stroke-dashoffset: 0; stroke: #808080"/>
     </g>
     <g id="line2d_2">
      <defs>
       <path id="m7eeafbb01f" d="M 0 0 
L 0 -10 
" style="stroke: #000000; stroke-width: 2"/>
      </defs>
      <g>
       <use xlink:href="#m7eeafbb01f" x="79.146941" y="289.68" style="stroke: #000000; stroke-width: 2"/>
      </g>
     </g>
     <g id="text_1">
      <!-- 25 -->
      <g transform="translate(69.146941 306.820625)scale(0.2 -0.2)">
       <defs>
        <path id="GillSans-32" d="M 2982 595 
L 2982 0 
L 218 0 
L 218 45 
Q 358 205 515 397 
Q 672 589 832 787 
Q 902 883 979 979 
Q 1056 1075 1126 1171 
Q 1299 1395 1456 1619 
Q 1613 1843 1734 2048 
Q 1805 2176 1862 2281 
Q 1920 2387 1958 2490 
Q 1997 2605 2019 2723 
Q 2042 2842 2042 2982 
Q 2042 3341 1827 3571 
Q 1613 3802 1293 3802 
Q 1056 3802 813 3677 
Q 570 3552 307 3213 
L 307 4006 
Q 442 4109 570 4185 
Q 698 4262 826 4314 
Q 947 4365 1075 4390 
Q 1203 4416 1338 4416 
Q 1926 4416 2297 4038 
Q 2669 3661 2669 3053 
Q 2669 2963 2659 2873 
Q 2650 2784 2637 2694 
Q 2547 2266 2233 1789 
Q 1920 1312 1312 589 
L 2982 595 
L 2982 595 
z
" transform="scale(0.015625)"/>
        <path id="GillSans-35" d="M 2586 4365 
L 2586 3802 
L 1216 3802 
L 1216 2707 
Q 1235 2701 1251 2701 
Q 1267 2701 1280 2707 
Q 1299 2707 1315 2707 
Q 1331 2707 1344 2707 
Q 2029 2701 2416 2304 
Q 2803 1907 2803 1331 
Q 2803 730 2400 336 
Q 1997 -58 1376 -58 
Q 1235 -58 1104 -42 
Q 973 -26 851 0 
Q 723 32 592 83 
Q 461 134 320 205 
L 320 858 
Q 557 691 797 611 
Q 1037 531 1274 531 
Q 1645 531 1910 764 
Q 2176 998 2176 1318 
Q 2176 1658 1904 1904 
Q 1632 2150 1133 2150 
Q 1024 2150 902 2134 
Q 781 2118 646 2086 
L 646 4365 
L 2586 4365 
L 2586 4365 
z
" transform="scale(0.015625)"/>
       </defs>
       <use xlink:href="#GillSans-32"/>
       <use xlink:href="#GillSans-35" x="49.999985"/>
      </g>
     </g>
    </g>
    <g id="xtick_2">
     <g id="line2d_3">
      <path d="M 150.094707 289.68 
L 150.094707 10.8 
" clip-path="url(#pe55ad46d20)" style="fill: none; stroke-dasharray: 1,1.65; stroke-dashoffset: 0; stroke: #808080"/>
     </g>
     <g id="line2d_4">
      <g>
       <use xlink:href="#m7eeafbb01f" x="150.094707" y="289.68" style="stroke: #000000; stroke-width: 2"/>
      </g>
     </g>
     <g id="text_2">
      <!-- 50 -->
      <g transform="translate(140.094707 306.820625)scale(0.2 -0.2)">
       <defs>
        <path id="GillSans-30" d="M 3008 2182 
Q 3008 1171 2621 556 
Q 2234 -58 1600 -58 
Q 966 -58 579 556 
Q 192 1171 192 2176 
Q 192 3187 579 3801 
Q 966 4416 1600 4416 
Q 2234 4416 2621 3801 
Q 3008 3187 3008 2176 
L 3008 2182 
z
M 2381 2182 
Q 2381 2944 2173 3382 
Q 1965 3821 1600 3821 
Q 1235 3821 1027 3382 
Q 819 2944 819 2176 
Q 819 1408 1027 969 
Q 1235 531 1600 531 
Q 1965 531 2173 969 
Q 2381 1408 2381 2176 
L 2381 2182 
z
" transform="scale(0.015625)"/>
       </defs>
       <use xlink:href="#GillSans-35"/>
       <use xlink:href="#GillSans-30" x="49.999985"/>
      </g>
     </g>
    </g>
    <g id="xtick_3">
     <g id="line2d_5">
      <path d="M 221.042472 289.68 
L 221.042472 10.8 
" clip-path="url(#pe55ad46d20)" style="fill: none; stroke-dasharray: 1,1.65; stroke-dashoffset: 0; stroke: #808080"/>
     </g>
     <g id="line2d_6">
      <g>
       <use xlink:href="#m7eeafbb01f" x="221.042472" y="289.68" style="stroke: #000000; stroke-width: 2"/>
      </g>
     </g>
     <g id="text_3">
      <!-- 75 -->
      <g transform="translate(211.042472 306.820625)scale(0.2 -0.2)">
       <defs>
        <path id="GillSans-37" d="M 3136 4365 
L 1158 -58 
L 602 186 
L 2202 3770 
L 314 3770 
L 314 4365 
L 3136 4365 
L 3136 4365 
z
" transform="scale(0.015625)"/>
       </defs>
       <use xlink:href="#GillSans-37"/>
       <use xlink:href="#GillSans-35" x="49.999985"/>
      </g>
     </g>
    </g>
    <g id="xtick_4">
     <g id="line2d_7">
      <path d="M 291.990237 289.68 
L 291.990237 10.8 
" clip-path="url(#pe55ad46d20)" style="fill: none; stroke-dasharray: 1,1.65; stroke-dashoffset: 0; stroke: #808080"/>
     </g>
     <g id="line2d_8">
      <g>
       <use xlink:href="#m7eeafbb01f" x="291.990237" y="289.68" style="stroke: #000000; stroke-width: 2"/>
      </g>
     </g>
     <g id="text_4">
      <!-- 100 -->
      <g transform="translate(276.990237 306.820625)scale(0.2 -0.2)">
       <defs>
        <path id="GillSans-31" d="M 1920 4365 
L 1920 0 
L 1293 0 
L 1293 4365 
L 1920 4365 
L 1920 4365 
z
" transform="scale(0.015625)"/>
       </defs>
       <use xlink:href="#GillSans-31"/>
       <use xlink:href="#GillSans-30" x="49.999985"/>
       <use xlink:href="#GillSans-30" x="99.999969"/>
      </g>
     </g>
    </g>
    <g id="xtick_5">
     <g id="line2d_9">
      <path d="M 362.938003 289.68 
L 362.938003 10.8 
" clip-path="url(#pe55ad46d20)" style="fill: none; stroke-dasharray: 1,1.65; stroke-dashoffset: 0; stroke: #808080"/>
     </g>
     <g id="line2d_10">
      <g>
       <use xlink:href="#m7eeafbb01f" x="362.938003" y="289.68" style="stroke: #000000; stroke-width: 2"/>
      </g>
     </g>
     <g id="text_5">
      <!-- 125 -->
      <g transform="translate(347.938003 306.820625)scale(0.2 -0.2)">
       <use xlink:href="#GillSans-31"/>
       <use xlink:href="#GillSans-32" x="49.999985"/>
       <use xlink:href="#GillSans-35" x="99.999969"/>
      </g>
     </g>
    </g>
    <g id="xtick_6">
     <g id="line2d_11">
      <path d="M 433.885768 289.68 
L 433.885768 10.8 
" clip-path="url(#pe55ad46d20)" style="fill: none; stroke-dasharray: 1,1.65; stroke-dashoffset: 0; stroke: #808080"/>
     </g>
     <g id="line2d_12">
      <g>
       <use xlink:href="#m7eeafbb01f" x="433.885768" y="289.68" style="stroke: #000000; stroke-width: 2"/>
      </g>
     </g>
     <g id="text_6">
      <!-- 150 -->
      <g transform="translate(418.885768 306.820625)scale(0.2 -0.2)">
       <use xlink:href="#GillSans-31"/>
       <use xlink:href="#GillSans-35" x="49.999985"/>
       <use xlink:href="#GillSans-30" x="99.999969"/>
      </g>
     </g>
    </g>
    <g id="text_7">
     <!-- System load (RPS) -->
     <g transform="translate(181.283286 329.301875)scale(0.2 -0.2)">
      <defs>
       <path id="GillSans-53" d="M 2554 4115 
L 2554 3405 
Q 2278 3661 2016 3757 
Q 1754 3853 1530 3853 
Q 1229 3853 1033 3709 
Q 838 3565 838 3334 
Q 838 3098 1014 2934 
Q 1190 2771 1446 2624 
Q 1523 2579 1609 2531 
Q 1696 2483 1786 2432 
Q 2138 2227 2432 1932 
Q 2726 1638 2726 1120 
Q 2726 608 2380 275 
Q 2035 -58 1504 -58 
Q 1152 -58 854 38 
Q 557 134 282 339 
L 282 1139 
Q 525 826 819 662 
Q 1114 499 1434 499 
Q 1734 499 1904 630 
Q 2074 762 2125 922 
Q 2131 954 2137 986 
Q 2144 1018 2144 1050 
Q 2144 1338 1926 1533 
Q 1709 1728 1421 1907 
Q 1363 1939 1308 1974 
Q 1254 2010 1203 2042 
Q 845 2259 550 2531 
Q 256 2803 256 3251 
Q 256 3782 617 4099 
Q 979 4416 1581 4416 
Q 1830 4416 2076 4339 
Q 2323 4262 2554 4109 
L 2554 4115 
z
" transform="scale(0.015625)"/>
       <path id="GillSans-79" d="M 2803 2874 
L 768 -1472 
L 134 -1472 
L 1114 614 
L 0 2874 
L 646 2874 
L 1421 1254 
L 2163 2874 
L 2803 2874 
L 2803 2874 
z
" transform="scale(0.015625)"/>
       <path id="GillSans-73" d="M 2074 2694 
L 2074 2131 
Q 1837 2285 1619 2355 
Q 1402 2426 1242 2426 
Q 1069 2426 966 2352 
Q 864 2278 864 2163 
Q 864 2067 1024 1939 
Q 1184 1811 1562 1587 
Q 1754 1459 1885 1353 
Q 2016 1248 2086 1146 
Q 2150 1056 2179 969 
Q 2208 883 2208 781 
Q 2208 403 1939 172 
Q 1670 -58 1261 -58 
Q 1146 -58 1037 -48 
Q 928 -38 819 -13 
Q 691 13 553 67 
Q 416 122 262 198 
L 262 819 
Q 544 621 787 528 
Q 1030 435 1203 435 
Q 1376 448 1501 528 
Q 1626 608 1626 762 
Q 1626 838 1568 902 
Q 1510 966 1421 1037 
Q 1325 1101 1203 1168 
Q 1082 1235 954 1312 
Q 704 1459 493 1657 
Q 282 1856 282 2144 
Q 282 2509 541 2717 
Q 800 2925 1229 2925 
Q 1434 2925 1642 2867 
Q 1850 2810 2074 2688 
L 2074 2694 
z
" transform="scale(0.015625)"/>
       <path id="GillSans-74" d="M 1069 3469 
L 1069 2874 
L 1978 2874 
L 1978 2362 
L 1069 2362 
L 1069 890 
Q 1069 691 1155 595 
Q 1242 499 1350 467 
Q 1382 454 1414 451 
Q 1446 448 1478 448 
Q 1632 448 1792 502 
Q 1952 557 2125 659 
L 2125 134 
Q 2054 90 1968 58 
Q 1882 26 1798 0 
Q 1696 -26 1600 -42 
Q 1504 -58 1434 -58 
Q 966 -58 732 195 
Q 499 448 499 838 
L 499 2362 
L 0 2362 
L 0 2426 
L 1069 3469 
L 1069 3469 
z
" transform="scale(0.015625)"/>
       <path id="GillSans-65" d="M 2803 832 
L 2803 282 
Q 2765 250 2723 224 
Q 2682 198 2643 179 
Q 2426 51 2195 -3 
Q 1965 -58 1658 -58 
Q 986 -58 624 406 
Q 262 870 262 1466 
Q 262 2118 636 2521 
Q 1011 2925 1606 2925 
Q 2176 2925 2515 2534 
Q 2854 2144 2854 1344 
L 832 1350 
Q 902 915 1145 697 
Q 1389 480 1798 480 
Q 1990 480 2179 531 
Q 2368 582 2554 678 
Q 2618 710 2678 748 
Q 2739 787 2803 826 
L 2803 832 
z
M 845 1728 
L 2291 1728 
Q 2278 2048 2099 2240 
Q 1920 2432 1619 2432 
Q 1293 2432 1097 2246 
Q 902 2061 845 1722 
L 845 1728 
z
" transform="scale(0.015625)"/>
       <path id="GillSans-6d" d="M 378 2874 
L 947 2874 
L 947 2496 
Q 1171 2714 1379 2819 
Q 1587 2925 1786 2925 
Q 2061 2925 2281 2793 
Q 2502 2662 2643 2406 
Q 2829 2618 3062 2771 
Q 3296 2925 3603 2925 
Q 4038 2925 4297 2617 
Q 4557 2310 4557 1798 
L 4557 0 
L 3987 0 
L 3987 1779 
Q 3987 2099 3811 2272 
Q 3635 2445 3392 2445 
Q 3392 2445 3389 2445 
Q 3386 2445 3386 2445 
Q 3386 2445 3382 2445 
Q 3379 2445 3379 2445 
Q 3302 2445 3212 2409 
Q 3123 2374 3027 2310 
Q 2957 2266 2886 2208 
Q 2816 2150 2752 2080 
L 2752 0 
L 2182 0 
L 2182 1786 
Q 2182 2131 2028 2288 
Q 1875 2445 1664 2445 
Q 1517 2445 1398 2409 
Q 1280 2374 1165 2291 
Q 1114 2253 1059 2198 
Q 1005 2144 947 2080 
L 947 0 
L 378 0 
L 378 2874 
L 378 2874 
z
" transform="scale(0.015625)"/>
       <path id="GillSans-20" transform="scale(0.015625)"/>
       <path id="GillSans-6c" d="M 986 4365 
L 986 0 
L 416 0 
L 416 4365 
L 986 4365 
L 986 4365 
z
" transform="scale(0.015625)"/>
       <path id="GillSans-6f" d="M 1747 2931 
Q 2426 2925 2864 2512 
Q 3302 2099 3302 1459 
Q 3302 781 2870 361 
Q 2438 -58 1747 -58 
Q 1088 -58 659 371 
Q 230 800 230 1459 
Q 230 2080 668 2502 
Q 1107 2925 1747 2925 
L 1747 2931 
z
M 1741 2419 
Q 1338 2413 1075 2144 
Q 813 1875 813 1459 
Q 813 1005 1072 726 
Q 1331 448 1741 448 
Q 2195 448 2457 717 
Q 2720 986 2720 1453 
Q 2720 1869 2445 2141 
Q 2170 2413 1741 2413 
L 1741 2419 
z
" transform="scale(0.015625)"/>
       <path id="GillSans-61" d="M 2630 512 
L 2630 166 
Q 2496 70 2406 25 
Q 2317 -19 2234 -38 
Q 2195 -51 2160 -54 
Q 2125 -58 2080 -58 
Q 1894 -58 1788 9 
Q 1683 77 1645 230 
Q 1459 83 1264 12 
Q 1069 -58 870 -58 
Q 557 -58 361 153 
Q 166 365 166 640 
Q 166 1024 428 1203 
Q 691 1382 1005 1498 
Q 1043 1510 1078 1523 
Q 1114 1536 1146 1549 
L 1651 1734 
L 1651 1888 
Q 1651 2150 1523 2268 
Q 1395 2387 1133 2387 
Q 1101 2387 1072 2384 
Q 1043 2381 1018 2381 
Q 806 2355 604 2240 
Q 403 2125 224 1914 
L 224 2541 
Q 390 2733 627 2829 
Q 864 2925 1178 2925 
Q 1613 2925 1917 2697 
Q 2221 2470 2221 1978 
L 2221 506 
Q 2221 416 2249 384 
Q 2278 352 2330 352 
Q 2374 352 2454 393 
Q 2534 435 2630 506 
L 2630 512 
z
M 1651 582 
L 1651 1421 
Q 1286 1293 1014 1145 
Q 742 998 742 742 
Q 742 563 857 451 
Q 973 339 1152 339 
Q 1286 339 1411 403 
Q 1536 467 1651 576 
L 1651 582 
z
" transform="scale(0.015625)"/>
       <path id="GillSans-64" d="M 2886 4365 
L 2886 0 
L 1677 0 
Q 1037 0 659 403 
Q 282 806 282 1498 
Q 282 2125 685 2525 
Q 1088 2925 1715 2925 
Q 1747 2925 1772 2925 
Q 1798 2925 1830 2918 
Q 1946 2912 2061 2886 
Q 2176 2861 2317 2810 
L 2317 4365 
L 2886 4365 
L 2886 4365 
z
M 2317 480 
L 2317 2310 
Q 2246 2336 2179 2355 
Q 2112 2374 2054 2387 
Q 1990 2400 1923 2406 
Q 1856 2413 1786 2413 
Q 1376 2413 1120 2141 
Q 864 1869 864 1414 
Q 864 1011 1056 742 
Q 1248 474 1741 474 
L 2317 480 
L 2317 480 
z
" transform="scale(0.015625)"/>
       <path id="GillSans-28" d="M 1069 1485 
Q 1069 608 1296 -121 
Q 1523 -851 1990 -1472 
L 1651 -1472 
Q 1152 -973 829 -301 
Q 506 371 429 1088 
Q 422 1184 416 1283 
Q 410 1382 410 1478 
Q 410 1574 416 1673 
Q 422 1773 429 1869 
Q 506 2586 829 3261 
Q 1152 3936 1651 4435 
L 1990 4442 
Q 1523 3814 1296 3081 
Q 1069 2349 1069 1478 
L 1069 1485 
z
" transform="scale(0.015625)"/>
       <path id="GillSans-52" d="M 493 4365 
L 1594 4365 
Q 2259 4358 2643 4032 
Q 3027 3706 3027 3136 
Q 3027 2758 2838 2483 
Q 2650 2208 2298 2067 
Q 2483 1946 2633 1779 
Q 2784 1613 2925 1402 
Q 3008 1280 3094 1142 
Q 3181 1005 3270 858 
Q 3309 794 3344 736 
Q 3379 678 3418 627 
Q 3424 614 3433 598 
Q 3443 582 3456 570 
Q 3533 454 3629 323 
Q 3725 192 3866 0 
L 3117 0 
L 2541 896 
Q 2176 1459 1952 1654 
Q 1728 1850 1530 1875 
Q 1491 1882 1456 1885 
Q 1421 1888 1382 1888 
L 1120 1894 
L 1120 0 
L 493 0 
L 493 4365 
L 493 4365 
z
M 1120 3827 
L 1120 2458 
L 1523 2458 
Q 2022 2451 2201 2665 
Q 2381 2880 2381 3149 
Q 2381 3149 2381 3152 
Q 2381 3155 2381 3155 
Q 2381 3155 2381 3158 
Q 2381 3162 2381 3162 
Q 2374 3469 2176 3645 
Q 1978 3821 1523 3821 
L 1120 3827 
L 1120 3827 
z
" transform="scale(0.015625)"/>
       <path id="GillSans-50" d="M 448 4365 
L 1811 4365 
Q 2528 4358 2864 3990 
Q 3200 3622 3200 3104 
Q 3200 2592 2845 2237 
Q 2490 1882 1728 1882 
L 1075 1888 
L 1075 0 
L 448 0 
L 448 4365 
L 448 4365 
z
M 1075 3802 
L 1075 2451 
L 1786 2451 
Q 2138 2445 2346 2624 
Q 2554 2803 2554 3130 
Q 2554 3149 2554 3165 
Q 2554 3181 2554 3194 
Q 2534 3418 2371 3606 
Q 2208 3795 1811 3795 
L 1075 3802 
L 1075 3802 
z
" transform="scale(0.015625)"/>
       <path id="GillSans-29" d="M 998 1485 
Q 998 2349 771 3081 
Q 544 3814 77 4435 
L 416 4442 
Q 915 3936 1238 3261 
Q 1562 2586 1638 1869 
Q 1645 1773 1651 1673 
Q 1658 1574 1658 1478 
Q 1658 1382 1651 1283 
Q 1645 1184 1638 1088 
Q 1562 371 1238 -301 
Q 915 -973 416 -1472 
L 77 -1472 
Q 544 -851 771 -121 
Q 998 608 998 1478 
L 998 1485 
z
" transform="scale(0.015625)"/>
      </defs>
      <use xlink:href="#GillSans-53"/>
      <use xlink:href="#GillSans-79" x="45.799988"/>
      <use xlink:href="#GillSans-73" x="89.599976"/>
      <use xlink:href="#GillSans-74" x="128.09996"/>
      <use xlink:href="#GillSans-65" x="161.399948"/>
      <use xlink:href="#GillSans-6d" x="209.299942"/>
      <use xlink:href="#GillSans-20" x="286.399933"/>
      <use xlink:href="#GillSans-6c" x="314.199921"/>
      <use xlink:href="#GillSans-6f" x="336.099915"/>
      <use xlink:href="#GillSans-61" x="391.299911"/>
      <use xlink:href="#GillSans-64" x="433.999908"/>
      <use xlink:href="#GillSans-20" x="484.999893"/>
      <use xlink:href="#GillSans-28" x="512.799881"/>
      <use xlink:href="#GillSans-52" x="545.099869"/>
      <use xlink:href="#GillSans-50" x="605.499863"/>
      <use xlink:href="#GillSans-53" x="656.499847"/>
      <use xlink:href="#GillSans-29" x="702.299835"/>
     </g>
    </g>
   </g>
   <g id="matplotlib.axis_2">
    <g id="ytick_1">
     <g id="line2d_13">
      <path d="M 61.41 289.68 
L 448.075321 289.68 
" clip-path="url(#pe55ad46d20)" style="fill: none; stroke-dasharray: 1,1.65; stroke-dashoffset: 0; stroke: #808080"/>
     </g>
     <g id="line2d_14">
      <defs>
       <path id="md88e453dcf" d="M 0 0 
L 15 0 
" style="stroke: #000000; stroke-width: 2"/>
      </defs>
      <g>
       <use xlink:href="#md88e453dcf" x="61.41" y="289.68" style="stroke: #000000; stroke-width: 2"/>
      </g>
     </g>
     <g id="text_8">
      <!-- 0.0 -->
      <g transform="translate(33.52875 296.500312)scale(0.2 -0.2)">
       <defs>
        <path id="GillSans-2e" d="M 698 710 
Q 858 704 970 592 
Q 1082 480 1082 320 
Q 1082 160 970 51 
Q 858 -58 698 -58 
Q 538 -58 426 51 
Q 314 160 314 320 
Q 314 480 426 592 
Q 538 704 698 704 
L 698 710 
z
" transform="scale(0.015625)"/>
       </defs>
       <use xlink:href="#GillSans-30"/>
       <use xlink:href="#GillSans-2e" x="49.999985"/>
       <use xlink:href="#GillSans-30" x="71.899979"/>
      </g>
     </g>
    </g>
    <g id="ytick_2">
     <g id="line2d_15">
      <path d="M 61.41 236.56 
L 448.075321 236.56 
" clip-path="url(#pe55ad46d20)" style="fill: none; stroke-dasharray: 1,1.65; stroke-dashoffset: 0; stroke: #808080"/>
     </g>
     <g id="line2d_16">
      <g>
       <use xlink:href="#md88e453dcf" x="61.41" y="236.56" style="stroke: #000000; stroke-width: 2"/>
      </g>
     </g>
     <g id="text_9">
      <!-- 0.2 -->
      <g transform="translate(33.52875 243.380312)scale(0.2 -0.2)">
       <use xlink:href="#GillSans-30"/>
       <use xlink:href="#GillSans-2e" x="49.999985"/>
       <use xlink:href="#GillSans-32" x="71.899979"/>
      </g>
     </g>
    </g>
    <g id="ytick_3">
     <g id="line2d_17">
      <path d="M 61.41 183.44 
L 448.075321 183.44 
" clip-path="url(#pe55ad46d20)" style="fill: none; stroke-dasharray: 1,1.65; stroke-dashoffset: 0; stroke: #808080"/>
     </g>
     <g id="line2d_18">
      <g>
       <use xlink:href="#md88e453dcf" x="61.41" y="183.44" style="stroke: #000000; stroke-width: 2"/>
      </g>
     </g>
     <g id="text_10">
      <!-- 0.4 -->
      <g transform="translate(33.52875 190.260312)scale(0.2 -0.2)">
       <defs>
        <path id="GillSans-34" d="M 2547 4422 
L 2547 1997 
L 3014 1997 
L 3014 1434 
L 2547 1434 
L 2547 0 
L 1920 0 
L 1920 1434 
L 70 1434 
L 70 1722 
L 2278 4422 
L 2547 4422 
L 2547 4422 
z
M 1907 3238 
L 909 1997 
L 1920 1997 
L 1920 3238 
L 1907 3238 
L 1907 3238 
z
" transform="scale(0.015625)"/>
       </defs>
       <use xlink:href="#GillSans-30"/>
       <use xlink:href="#GillSans-2e" x="49.999985"/>
       <use xlink:href="#GillSans-34" x="71.899979"/>
      </g>
     </g>
    </g>
    <g id="ytick_4">
     <g id="line2d_19">
      <path d="M 61.41 130.32 
L 448.075321 130.32 
" clip-path="url(#pe55ad46d20)" style="fill: none; stroke-dasharray: 1,1.65; stroke-dashoffset: 0; stroke: #808080"/>
     </g>
     <g id="line2d_20">
      <g>
       <use xlink:href="#md88e453dcf" x="61.41" y="130.32" style="stroke: #000000; stroke-width: 2"/>
      </g>
     </g>
     <g id="text_11">
      <!-- 0.6 -->
      <g transform="translate(33.52875 137.140312)scale(0.2 -0.2)">
       <defs>
        <path id="GillSans-36" d="M 2029 4422 
L 2406 3942 
Q 1984 3693 1635 3302 
Q 1286 2912 1120 2490 
Q 1107 2451 1094 2412 
Q 1082 2374 1069 2336 
Q 1197 2406 1366 2460 
Q 1536 2515 1754 2515 
Q 2278 2515 2627 2150 
Q 2976 1786 2976 1242 
Q 2976 710 2595 326 
Q 2214 -58 1690 -58 
Q 1062 -58 672 368 
Q 282 794 282 1485 
Q 282 2304 730 3078 
Q 1178 3853 2029 4416 
L 2029 4422 
z
M 934 1696 
Q 915 1606 905 1529 
Q 896 1453 896 1382 
Q 902 986 1132 758 
Q 1363 531 1651 531 
Q 1965 531 2157 729 
Q 2349 928 2349 1248 
Q 2349 1536 2144 1728 
Q 1939 1920 1626 1920 
Q 1530 1920 1450 1910 
Q 1370 1901 1293 1875 
Q 1210 1850 1126 1805 
Q 1043 1760 934 1690 
L 934 1696 
z
" transform="scale(0.015625)"/>
       </defs>
       <use xlink:href="#GillSans-30"/>
       <use xlink:href="#GillSans-2e" x="49.999985"/>
       <use xlink:href="#GillSans-36" x="71.899979"/>
      </g>
     </g>
    </g>
    <g id="ytick_5">
     <g id="line2d_21">
      <path d="M 61.41 77.2 
L 448.075321 77.2 
" clip-path="url(#pe55ad46d20)" style="fill: none; stroke-dasharray: 1,1.65; stroke-dashoffset: 0; stroke: #808080"/>
     </g>
     <g id="line2d_22">
      <g>
       <use xlink:href="#md88e453dcf" x="61.41" y="77.2" style="stroke: #000000; stroke-width: 2"/>
      </g>
     </g>
     <g id="text_12">
      <!-- 0.8 -->
      <g transform="translate(33.52875 84.020312)scale(0.2 -0.2)">
       <defs>
        <path id="GillSans-38" d="M 2995 1178 
Q 2995 646 2598 294 
Q 2202 -58 1613 -58 
Q 1018 -58 611 297 
Q 205 653 205 1178 
Q 205 1523 358 1782 
Q 512 2042 826 2221 
Q 582 2400 444 2643 
Q 307 2886 307 3162 
Q 307 3699 691 4057 
Q 1075 4416 1645 4416 
Q 2195 4416 2563 4054 
Q 2931 3693 2931 3149 
Q 2931 3098 2924 3043 
Q 2918 2989 2906 2931 
Q 2861 2739 2733 2550 
Q 2605 2362 2387 2221 
Q 2688 2061 2841 1782 
Q 2995 1504 2995 1171 
L 2995 1178 
z
M 2368 1229 
Q 2368 1523 2157 1718 
Q 1946 1914 1613 1914 
Q 1261 1914 1046 1722 
Q 832 1530 832 1222 
Q 832 922 1049 726 
Q 1267 531 1600 531 
Q 1978 531 2173 739 
Q 2368 947 2368 1222 
L 2368 1229 
z
M 2304 3168 
Q 2304 3443 2115 3632 
Q 1926 3821 1632 3821 
Q 1318 3821 1126 3645 
Q 934 3469 934 3174 
Q 934 2906 1139 2707 
Q 1344 2509 1619 2509 
Q 1901 2509 2102 2704 
Q 2304 2899 2304 3162 
L 2304 3168 
z
" transform="scale(0.015625)"/>
       </defs>
       <use xlink:href="#GillSans-30"/>
       <use xlink:href="#GillSans-2e" x="49.999985"/>
       <use xlink:href="#GillSans-38" x="71.899979"/>
      </g>
     </g>
    </g>
    <g id="ytick_6">
     <g id="line2d_23">
      <path d="M 61.41 24.08 
L 448.075321 24.08 
" clip-path="url(#pe55ad46d20)" style="fill: none; stroke-dasharray: 1,1.65; stroke-dashoffset: 0; stroke: #808080"/>
     </g>
     <g id="line2d_24">
      <g>
       <use xlink:href="#md88e453dcf" x="61.41" y="24.08" style="stroke: #000000; stroke-width: 2"/>
      </g>
     </g>
     <g id="text_13">
      <!-- 1.0 -->
      <g transform="translate(33.52875 30.900312)scale(0.2 -0.2)">
       <use xlink:href="#GillSans-31"/>
       <use xlink:href="#GillSans-2e" x="49.999985"/>
       <use xlink:href="#GillSans-30" x="71.899979"/>
      </g>
     </g>
    </g>
    <g id="text_14">
     <!-- Accuracy -->
     <g transform="translate(24.92875 187.65875)rotate(-90)scale(0.2 -0.2)">
      <defs>
       <path id="GillSans-41" d="M 2317 4390 
L 4269 0 
L 3629 0 
L 3046 1286 
L 1190 1286 
L 640 0 
L 0 0 
L 1875 4390 
L 2317 4390 
L 2317 4390 
z
M 2086 3430 
L 1434 1850 
L 2790 1850 
L 2086 3430 
L 2086 3430 
z
" transform="scale(0.015625)"/>
       <path id="GillSans-63" d="M 2515 2733 
L 2515 2125 
Q 2323 2246 2176 2307 
Q 2029 2368 1888 2387 
Q 1850 2394 1808 2397 
Q 1766 2400 1722 2400 
Q 1331 2400 1088 2131 
Q 845 1862 845 1427 
Q 845 979 1110 726 
Q 1376 474 1818 474 
Q 1850 474 1882 474 
Q 1914 474 1952 480 
Q 2099 493 2249 541 
Q 2400 589 2579 666 
L 2579 109 
Q 2477 51 2313 16 
Q 2150 -19 1978 -45 
Q 1907 -51 1846 -54 
Q 1786 -58 1722 -58 
Q 1082 -58 672 342 
Q 262 742 262 1376 
Q 262 2086 646 2505 
Q 1030 2925 1683 2925 
Q 1856 2925 1993 2899 
Q 2131 2874 2259 2829 
Q 2323 2810 2387 2784 
Q 2451 2758 2515 2726 
L 2515 2733 
z
" transform="scale(0.015625)"/>
       <path id="GillSans-75" d="M 2797 0 
L 2227 0 
L 2227 365 
Q 2112 230 1971 137 
Q 1830 45 1683 0 
Q 1606 -26 1526 -42 
Q 1446 -58 1376 -58 
Q 941 -58 662 240 
Q 384 538 384 1082 
L 384 2874 
L 954 2874 
L 954 1050 
Q 954 742 1101 576 
Q 1248 410 1542 410 
Q 1734 410 1910 512 
Q 2086 614 2227 813 
L 2227 2874 
L 2797 2874 
L 2797 0 
L 2797 0 
z
" transform="scale(0.015625)"/>
       <path id="GillSans-72" d="M 442 2874 
L 1011 2874 
L 1011 2214 
L 1024 2214 
Q 1242 2586 1450 2755 
Q 1658 2925 1856 2925 
Q 1926 2925 1993 2912 
Q 2061 2899 2131 2874 
Q 2227 2835 2329 2764 
Q 2432 2694 2541 2592 
L 2240 2106 
Q 2195 2144 2144 2185 
Q 2093 2227 2035 2259 
Q 1946 2317 1859 2349 
Q 1773 2381 1709 2381 
Q 1414 2381 1212 2125 
Q 1011 1869 1011 1498 
L 1011 0 
L 442 0 
L 442 2874 
L 442 2874 
z
" transform="scale(0.015625)"/>
      </defs>
      <use xlink:href="#GillSans-41"/>
      <use xlink:href="#GillSans-63" x="66.699997"/>
      <use xlink:href="#GillSans-63" x="110.499985"/>
      <use xlink:href="#GillSans-75" x="154.299973"/>
      <use xlink:href="#GillSans-72" x="204.299957"/>
      <use xlink:href="#GillSans-61" x="243.899948"/>
      <use xlink:href="#GillSans-63" x="286.599945"/>
      <use xlink:href="#GillSans-79" x="330.399933"/>
     </g>
    </g>
   </g>
   <g id="line2d_25">
    <path d="M 79.146941 24.08 
L 150.094707 26.736 
L 221.042472 27.2672 
L 291.990237 29.6576 
L 362.938003 31.2512 
L 433.885768 29.392 
" clip-path="url(#pe55ad46d20)" style="fill: none; stroke: #000080; stroke-width: 2.5; stroke-linecap: square"/>
    <defs>
     <path id="m967c935e01" d="M -5 5 
L 5 5 
L 5 -5 
L -5 -5 
z
" style="stroke: #000080; stroke-width: 1.5; stroke-linejoin: miter"/>
    </defs>
    <g clip-path="url(#pe55ad46d20)">
     <use xlink:href="#m967c935e01" x="79.146941" y="24.08" style="fill-opacity: 0; stroke: #000080; stroke-width: 1.5; stroke-linejoin: miter"/>
     <use xlink:href="#m967c935e01" x="150.094707" y="26.736" style="fill-opacity: 0; stroke: #000080; stroke-width: 1.5; stroke-linejoin: miter"/>
     <use xlink:href="#m967c935e01" x="221.042472" y="27.2672" style="fill-opacity: 0; stroke: #000080; stroke-width: 1.5; stroke-linejoin: miter"/>
     <use xlink:href="#m967c935e01" x="291.990237" y="29.6576" style="fill-opacity: 0; stroke: #000080; stroke-width: 1.5; stroke-linejoin: miter"/>
     <use xlink:href="#m967c935e01" x="362.938003" y="31.2512" style="fill-opacity: 0; stroke: #000080; stroke-width: 1.5; stroke-linejoin: miter"/>
     <use xlink:href="#m967c935e01" x="433.885768" y="29.392" style="fill-opacity: 0; stroke: #000080; stroke-width: 1.5; stroke-linejoin: miter"/>
    </g>
   </g>
   <g id="line2d_26">
    <path d="M 79.146941 25.1424 
L 150.094707 28.3296 
L 221.042472 28.8608 
L 291.990237 33.9072 
L 362.938003 37.0944 
L 433.885768 36.032 
" clip-path="url(#pe55ad46d20)" style="fill: none; stroke: #008000; stroke-width: 2.5; stroke-linecap: square"/>
    <defs>
     <path id="m28caae9505" d="M 0 5 
C 1.326016 5 2.597899 4.473168 3.535534 3.535534 
C 4.473168 2.597899 5 1.326016 5 0 
C 5 -1.326016 4.473168 -2.597899 3.535534 -3.535534 
C 2.597899 -4.473168 1.326016 -5 0 -5 
C -1.326016 -5 -2.597899 -4.473168 -3.535534 -3.535534 
C -4.473168 -2.597899 -5 -1.326016 -5 0 
C -5 1.326016 -4.473168 2.597899 -3.535534 3.535534 
C -2.597899 4.473168 -1.326016 5 0 5 
z
" style="stroke: #008000; stroke-width: 1.5"/>
    </defs>
    <g clip-path="url(#pe55ad46d20)">
     <use xlink:href="#m28caae9505" x="79.146941" y="25.1424" style="fill-opacity: 0; stroke: #008000; stroke-width: 1.5"/>
     <use xlink:href="#m28caae9505" x="150.094707" y="28.3296" style="fill-opacity: 0; stroke: #008000; stroke-width: 1.5"/>
     <use xlink:href="#m28caae9505" x="221.042472" y="28.8608" style="fill-opacity: 0; stroke: #008000; stroke-width: 1.5"/>
     <use xlink:href="#m28caae9505" x="291.990237" y="33.9072" style="fill-opacity: 0; stroke: #008000; stroke-width: 1.5"/>
     <use xlink:href="#m28caae9505" x="362.938003" y="37.0944" style="fill-opacity: 0; stroke: #008000; stroke-width: 1.5"/>
     <use xlink:href="#m28caae9505" x="433.885768" y="36.032" style="fill-opacity: 0; stroke: #008000; stroke-width: 1.5"/>
    </g>
   </g>
   <g id="line2d_27">
    <path d="M 79.146941 28.5952 
L 150.094707 45.8592 
L 221.042472 65.248 
L 291.990237 81.184 
L 362.938003 88.8864 
L 433.885768 94.1984 
" clip-path="url(#pe55ad46d20)" style="fill: none; stroke: #990000; stroke-width: 2.5; stroke-linecap: square"/>
    <defs>
     <path id="mf1534b9d7e" d="M -5 5 
L 5 -5 
M -5 -5 
L 5 5 
" style="stroke: #990000; stroke-width: 1.5"/>
    </defs>
    <g clip-path="url(#pe55ad46d20)">
     <use xlink:href="#mf1534b9d7e" x="79.146941" y="28.5952" style="fill-opacity: 0; stroke: #990000; stroke-width: 1.5"/>
     <use xlink:href="#mf1534b9d7e" x="150.094707" y="45.8592" style="fill-opacity: 0; stroke: #990000; stroke-width: 1.5"/>
     <use xlink:href="#mf1534b9d7e" x="221.042472" y="65.248" style="fill-opacity: 0; stroke: #990000; stroke-width: 1.5"/>
     <use xlink:href="#mf1534b9d7e" x="291.990237" y="81.184" style="fill-opacity: 0; stroke: #990000; stroke-width: 1.5"/>
     <use xlink:href="#mf1534b9d7e" x="362.938003" y="88.8864" style="fill-opacity: 0; stroke: #990000; stroke-width: 1.5"/>
     <use xlink:href="#mf1534b9d7e" x="433.885768" y="94.1984" style="fill-opacity: 0; stroke: #990000; stroke-width: 1.5"/>
    </g>
   </g>
   <g id="line2d_28">
    <path d="M 79.146941 44.5312 
L 150.094707 84.3712 
L 221.042472 117.5712 
L 291.990237 136.6944 
L 362.938003 144.1312 
L 433.885768 156.3488 
" clip-path="url(#pe55ad46d20)" style="fill: none; stroke: #a5669f; stroke-width: 2.5; stroke-linecap: square"/>
    <defs>
     <path id="mfa7732e97b" d="M 0 -5 
L -5 5 
L 5 5 
z
" style="stroke: #a5669f; stroke-width: 1.5; stroke-linejoin: miter"/>
    </defs>
    <g clip-path="url(#pe55ad46d20)">
     <use xlink:href="#mfa7732e97b" x="79.146941" y="44.5312" style="fill-opacity: 0; stroke: #a5669f; stroke-width: 1.5; stroke-linejoin: miter"/>
     <use xlink:href="#mfa7732e97b" x="150.094707" y="84.3712" style="fill-opacity: 0; stroke: #a5669f; stroke-width: 1.5; stroke-linejoin: miter"/>
     <use xlink:href="#mfa7732e97b" x="221.042472" y="117.5712" style="fill-opacity: 0; stroke: #a5669f; stroke-width: 1.5; stroke-linejoin: miter"/>
     <use xlink:href="#mfa7732e97b" x="291.990237" y="136.6944" style="fill-opacity: 0; stroke: #a5669f; stroke-width: 1.5; stroke-linejoin: miter"/>
     <use xlink:href="#mfa7732e97b" x="362.938003" y="144.1312" style="fill-opacity: 0; stroke: #a5669f; stroke-width: 1.5; stroke-linejoin: miter"/>
     <use xlink:href="#mfa7732e97b" x="433.885768" y="156.3488" style="fill-opacity: 0; stroke: #a5669f; stroke-width: 1.5; stroke-linejoin: miter"/>
    </g>
   </g>
   <g id="patch_3">
    <path d="M 61.41 289.68 
L 61.41 10.8 
" style="fill: none; stroke: #808080; stroke-width: 0.8; stroke-linejoin: miter; stroke-linecap: square"/>
   </g>
   <g id="patch_4">
    <path d="M 448.075321 289.68 
L 448.075321 10.8 
" style="fill: none; stroke-dasharray: 0.8,1.32; stroke-dashoffset: 0; stroke: #808080; stroke-width: 0.8; stroke-linejoin: miter; stroke-linecap: square"/>
   </g>
   <g id="patch_5">
    <path d="M 61.41 289.68 
L 448.075321 289.68 
" style="fill: none; stroke: #808080; stroke-width: 0.8; stroke-linejoin: miter; stroke-linecap: square"/>
   </g>
   <g id="patch_6">
    <path d="M 61.41 10.8 
L 448.075321 10.8 
" style="fill: none; stroke-dasharray: 0.8,1.32; stroke-dashoffset: 0; stroke: #808080; stroke-width: 0.8; stroke-linejoin: miter; stroke-linecap: square"/>
   </g>
   <g id="legend_1">
    <g id="patch_7">
     <path d="M 173.67629 284.584 
L 321.479415 284.584 
Q 325.479415 284.584 325.479415 280.584 
L 325.479415 168.184 
Q 325.479415 164.184 321.479415 164.184 
L 173.67629 164.184 
Q 169.67629 164.184 169.67629 168.184 
L 169.67629 280.584 
Q 169.67629 284.584 173.67629 284.584 
z
" style="fill: #ffffff; opacity: 0.8"/>
    </g>
    <g id="line2d_29">
     <path d="M 183.67629 179.184 
L 211.67629 179.184 
" style="fill: none; stroke: #000080; stroke-width: 2.5; stroke-linecap: square"/>
     <g>
      <use xlink:href="#m967c935e01" x="183.67629" y="179.184" style="fill-opacity: 0; stroke: #000080; stroke-width: 1.5; stroke-linejoin: miter"/>
      <use xlink:href="#m967c935e01" x="211.67629" y="179.184" style="fill-opacity: 0; stroke: #000080; stroke-width: 1.5; stroke-linejoin: miter"/>
     </g>
    </g>
    <g id="text_15">
     <!-- Greedy++ -->
     <g transform="translate(233.67629 186.184)scale(0.2 -0.2)">
      <defs>
       <path id="GillSans-47" d="M 4307 2150 
L 4307 301 
Q 4109 211 3929 147 
Q 3750 83 3571 38 
Q 3347 -6 3120 -32 
Q 2893 -58 2643 -58 
Q 1638 -58 979 566 
Q 320 1190 320 2150 
Q 320 3117 992 3766 
Q 1664 4416 2662 4416 
Q 2784 4416 2899 4409 
Q 3014 4403 3123 4384 
Q 3360 4352 3613 4272 
Q 3866 4192 4218 4045 
L 4218 3418 
Q 3930 3571 3635 3670 
Q 3341 3770 3046 3814 
Q 2944 3827 2845 3833 
Q 2746 3840 2650 3840 
Q 1939 3840 1452 3360 
Q 966 2880 966 2170 
Q 966 1440 1462 976 
Q 1958 512 2733 512 
Q 2989 512 3222 563 
Q 3456 614 3680 685 
L 3680 1587 
L 2842 1587 
L 2842 2150 
L 4307 2150 
L 4307 2150 
z
" transform="scale(0.015625)"/>
       <path id="GillSans-2b" d="M 1606 3770 
L 2131 3770 
L 2131 2522 
L 3379 2522 
L 3379 1997 
L 2131 1997 
L 2131 749 
L 1606 749 
L 1606 1997 
L 358 1997 
L 358 2522 
L 1606 2522 
L 1606 3770 
L 1606 3770 
z
" transform="scale(0.015625)"/>
      </defs>
      <use xlink:href="#GillSans-47"/>
      <use xlink:href="#GillSans-72" x="73.999985"/>
      <use xlink:href="#GillSans-65" x="111.599976"/>
      <use xlink:href="#GillSans-65" x="159.499969"/>
      <use xlink:href="#GillSans-64" x="207.399963"/>
      <use xlink:href="#GillSans-79" x="258.399948"/>
      <use xlink:href="#GillSans-2b" x="302.199936"/>
      <use xlink:href="#GillSans-2b" x="360.59993"/>
     </g>
    </g>
    <g id="line2d_30">
     <path d="M 183.67629 207.784 
L 211.67629 207.784 
" style="fill: none; stroke: #008000; stroke-width: 2.5; stroke-linecap: square"/>
     <g>
      <use xlink:href="#m28caae9505" x="183.67629" y="207.784" style="fill-opacity: 0; stroke: #008000; stroke-width: 1.5"/>
      <use xlink:href="#m28caae9505" x="211.67629" y="207.784" style="fill-opacity: 0; stroke: #008000; stroke-width: 1.5"/>
     </g>
    </g>
    <g id="text_16">
     <!-- Greedy -->
     <g transform="translate(233.67629 214.784)scale(0.2 -0.2)">
      <use xlink:href="#GillSans-47"/>
      <use xlink:href="#GillSans-72" x="73.999985"/>
      <use xlink:href="#GillSans-65" x="111.599976"/>
      <use xlink:href="#GillSans-65" x="159.499969"/>
      <use xlink:href="#GillSans-64" x="207.399963"/>
      <use xlink:href="#GillSans-79" x="258.399948"/>
     </g>
    </g>
    <g id="line2d_31">
     <path d="M 183.67629 236.384 
L 211.67629 236.384 
" style="fill: none; stroke: #990000; stroke-width: 2.5; stroke-linecap: square"/>
     <g>
      <use xlink:href="#mf1534b9d7e" x="183.67629" y="236.384" style="fill-opacity: 0; stroke: #990000; stroke-width: 1.5"/>
      <use xlink:href="#mf1534b9d7e" x="211.67629" y="236.384" style="fill-opacity: 0; stroke: #990000; stroke-width: 1.5"/>
     </g>
    </g>
    <g id="text_17">
     <!-- FCFS++ -->
     <g transform="translate(233.67629 243.384)scale(0.2 -0.2)">
      <defs>
       <path id="GillSans-46" d="M 2816 4365 
L 2816 3802 
L 1114 3802 
L 1114 2592 
L 2816 2592 
L 2816 2029 
L 1114 2029 
L 1114 0 
L 486 0 
L 486 4365 
L 2816 4365 
L 2816 4365 
z
" transform="scale(0.015625)"/>
       <path id="GillSans-43" d="M 4198 4064 
L 4198 3392 
Q 3942 3533 3708 3632 
Q 3475 3731 3238 3782 
Q 3104 3808 2969 3824 
Q 2835 3840 2694 3840 
Q 1946 3840 1450 3366 
Q 954 2893 954 2170 
Q 954 1434 1443 973 
Q 1933 512 2720 512 
Q 2906 512 3098 544 
Q 3290 576 3482 640 
Q 3674 704 3866 793 
Q 4058 883 4243 1005 
L 4243 326 
Q 3923 154 3548 48 
Q 3174 -58 2662 -58 
Q 1696 -58 1145 425 
Q 595 909 410 1491 
Q 358 1651 332 1808 
Q 307 1965 307 2112 
Q 307 3110 982 3763 
Q 1658 4416 2701 4416 
Q 3040 4416 3395 4329 
Q 3750 4243 4198 4058 
L 4198 4064 
z
" transform="scale(0.015625)"/>
      </defs>
      <use xlink:href="#GillSans-46"/>
      <use xlink:href="#GillSans-43" x="46.899994"/>
      <use xlink:href="#GillSans-46" x="117.699982"/>
      <use xlink:href="#GillSans-53" x="164.599976"/>
      <use xlink:href="#GillSans-2b" x="210.399963"/>
      <use xlink:href="#GillSans-2b" x="268.799957"/>
     </g>
    </g>
    <g id="line2d_32">
     <path d="M 183.67629 264.984 
L 211.67629 264.984 
" style="fill: none; stroke: #a5669f; stroke-width: 2.5; stroke-linecap: square"/>
     <g>
      <use xlink:href="#mfa7732e97b" x="183.67629" y="264.984" style="fill-opacity: 0; stroke: #a5669f; stroke-width: 1.5; stroke-linejoin: miter"/>
      <use xlink:href="#mfa7732e97b" x="211.67629" y="264.984" style="fill-opacity: 0; stroke: #a5669f; stroke-width: 1.5; stroke-linejoin: miter"/>
     </g>
    </g>
    <g id="text_18">
     <!-- FCFS -->
     <g transform="translate(233.67629 271.984)scale(0.2 -0.2)">
      <use xlink:href="#GillSans-46"/>
      <use xlink:href="#GillSans-43" x="46.899994"/>
      <use xlink:href="#GillSans-46" x="117.699982"/>
      <use xlink:href="#GillSans-53" x="164.599976"/>
     </g>
    </g>
   </g>
  </g>
 </g>
 <defs>
  <clipPath id="pe55ad46d20">
   <rect x="61.41" y="10.8" width="386.665321" height="278.88"/>
  </clipPath>
 </defs>
</svg>
